<?xml version="1.0" standalone="no"?>
<!DOCTYPE svg PUBLIC "-//W3C//DTD SVG 20010904//EN"
 "http://www.w3.org/TR/2001/REC-SVG-20010904/DTD/svg10.dtd">
<svg version="1.0" xmlns="http://www.w3.org/2000/svg"
 width="16.000000pt" height="16.000000pt" viewBox="0 0 16.000000 16.000000"
 preserveAspectRatio="xMidYMid meet">
<metadata>
Created by potrace 1.11, written by Peter Selinger 2001-2013
</metadata>
<g transform="translate(0.000000,16.000000) scale(0.009143,-0.009143)"
fill="#000000" stroke="none">
<path d="M2 878 l-2 -558 875 0 875 0 -2 558 -3 557 -2 -552 -3 -553 -865 0
-865 0 -3 553 -2 552 -3 -557z"/>
<path d="M130 885 l0 -435 745 0 745 0 0 435 0 435 -745 0 -745 0 0 -435z
m404 259 c9 -3 46 -60 82 -125 l67 -120 64 113 c35 62 71 119 80 126 21 15
105 16 121 0 14 -14 17 -494 3 -516 -5 -9 -25 -12 -62 -10 l-54 3 -5 153 -5
153 -50 -91 c-27 -50 -58 -93 -68 -96 -43 -14 -65 4 -116 99 l-51 92 0 -145
c0 -80 -4 -151 -9 -158 -5 -9 -25 -12 -62 -10 l-54 3 -3 254 c-2 179 1 258 9
267 12 14 84 19 113 8z m830 -25 c5 -14 6 -38 2 -53 -6 -26 -7 -26 -96 -26
l-90 0 0 -50 0 -49 88 -3 87 -3 0 -50 0 -50 -87 -3 -87 -3 -3 -107 -3 -107
-60 0 -60 0 -3 259 c-2 201 1 261 10 268 7 4 76 7 153 5 l140 -2 9 -26z"/>
</g>
</svg>
